<svg width="577" height="361" viewBox="0 0 577 361" fill="none" xmlns="http://www.w3.org/2000/svg">
<rect width="576.632" height="360.395" fill="#F3F1EF"/>
<path d="M286.715 205.082C286.646 205.082 286.572 205.082 286.498 205.078L285.954 205.05L285.234 204.176L285.345 203.606C285.387 203.388 285.76 201.233 284.464 199.387C283.486 197.993 281.765 197.087 279.348 196.686C271.067 195.16 262.947 197.173 260.654 197.825C260.092 197.989 259.497 197.88 259.026 197.529C258.555 197.178 258.283 196.64 258.283 196.057V159.31C258.283 158.294 258.948 157.419 259.935 157.137C263.842 156.016 277.304 152.877 288.321 158.886C299.347 152.877 312.795 156.016 316.697 157.137C317.671 157.419 318.349 158.312 318.349 159.31V195.921C318.349 196.499 318.072 197.05 317.602 197.392C317.131 197.738 316.531 197.843 315.964 197.679C313.68 197.009 305.588 194.95 297.331 196.481C294.969 197.037 293.455 198.148 292.699 199.889C291.259 203.201 289.087 205.082 286.706 205.082H286.715ZM287.855 159.146C287.855 159.146 287.85 159.146 287.846 159.15C287.846 159.15 287.85 159.15 287.855 159.146Z" fill="black"/>
</svg>
