<svg width="577" height="361" viewBox="0 0 577 361" fill="none" xmlns="http://www.w3.org/2000/svg">
<rect width="576.632" height="360.395" fill="#F3F1EF"/>
<path d="M259.141 170.329H317.088L317.491 187.92V195.848L316.082 196.442L311.656 195.451C312.125 195.781 311.777 196.244 306.626 195.451C300.187 194.46 298.175 195.451 294.553 196.442C290.932 197.433 290.127 202.982 289.724 203.181C289.322 203.379 286.706 204.172 285.901 199.811C285.097 195.451 280.067 196.442 274.433 195.451C269.926 194.658 262.36 195.781 259.141 196.442V170.329Z" fill="black"/>
<path d="M286.715 205.082C286.646 205.082 286.572 205.082 286.498 205.078L285.954 205.05L285.234 204.176L285.345 203.606C285.387 203.388 285.76 201.233 284.464 199.387C283.486 197.993 281.765 197.087 279.348 196.686C271.067 195.16 262.947 197.173 260.654 197.825C260.092 197.989 259.497 197.88 259.026 197.529C258.555 197.178 258.283 196.64 258.283 196.057V159.31C258.283 158.294 258.948 157.419 259.935 157.137C263.842 156.016 277.304 152.877 288.321 158.886C299.347 152.877 312.795 156.016 316.697 157.137C317.671 157.419 318.349 158.312 318.349 159.31V195.921C318.349 196.499 318.072 197.05 317.602 197.392C317.131 197.738 316.531 197.843 315.964 197.679C313.68 197.009 305.588 194.95 297.331 196.481C294.969 197.037 293.455 198.148 292.699 199.889C291.259 203.201 289.087 205.082 286.706 205.082H286.715ZM272.871 193.752C275.071 193.752 277.401 193.92 279.763 194.358C282.817 194.864 285.064 196.103 286.425 198.039C287.504 199.574 287.786 201.223 287.809 202.426C289.225 201.67 290.194 199.679 290.503 198.959C291.569 196.513 293.686 194.905 296.809 194.176L296.86 194.162C304.837 192.681 312.453 194.262 315.95 195.219V159.378C312.13 158.289 299.259 155.333 289.045 161.187C288.598 161.447 288.035 161.447 287.578 161.187C277.373 155.333 264.497 158.294 260.673 159.383V195.369C263.136 194.713 267.639 193.756 272.866 193.756L272.871 193.752ZM287.855 159.146C287.855 159.146 287.85 159.146 287.846 159.15C287.846 159.15 287.85 159.15 287.855 159.146Z" fill="black"/>
</svg>
